<svg width="1300" height="323" xmlns="http://www.w3.org/2000/svg">

 <g>
  <title>Layer 1</title>
  <path id="svg_2" fill="#FBFBFB" d="m579.11643,70.41284c1.44495,-0.00435 2.88991,-0.00954 4.33485,-0.01549c3.90327,-0.01332 7.80644,-0.01397 11.70973,-0.01143c3.27222,0.00107 6.54443,-0.00383 9.81665,-0.00861c7.73068,-0.01107 15.46131,-0.01155 23.19199,-0.00549c7.93942,0.00603 15.87866,-0.00624 23.81804,-0.02757c6.84538,-0.0177 13.69071,-0.0236 20.53611,-0.02036c4.07543,0.0018 8.15074,-0.0007 12.22615,-0.01471c3.83985,-0.01271 7.67942,-0.01051 11.51926,0.00241c1.39664,0.00234 2.79329,-0.00027 4.1899,-0.00862c12.48233,-0.06922 25.3503,0.99631 36.50839,7.07203c0.6646,0.34958 1.32919,0.69915 2.01392,1.05932c16.51665,8.95163 28.06331,23.66275 33.70758,41.52553c1.49476,6.11586 1.25269,12.31264 1.24066,18.57237c0.00436,1.39057 0.00954,2.78113 0.01549,4.17168c0.01333,3.75851 0.01397,7.51691 0.01144,11.27543c-0.00108,3.14819 0.00382,6.29636 0.0086,9.44454c0.01108,7.43474 0.01155,14.86942 0.00549,22.30416c-0.00603,7.6435 0.00626,15.28683 0.02757,22.93031c0.01768,6.58459 0.02361,13.16913 0.02036,19.75375c-0.0018,3.92277 0.00073,7.8454 0.01471,11.76815c0.01268,3.69373 0.01055,7.38718 -0.00241,11.08091c-0.00345,1.98241 0.00775,3.96483 0.01957,5.94721c-0.10734,18.48819 -6.2778,33.38501 -19.39548,46.47914c-0.56332,0.63422 -1.12664,1.26844 -1.70703,1.92187c-8.99564,9.89303 -22.88169,15.95206 -36.06125,17.52901c-3.93518,0.1643 -7.85245,0.18151 -11.78909,0.13261c-1.49011,0.00023 -2.98023,0.00266 -4.47034,0.00708c-3.99802,0.00565 -7.99529,-0.01937 -11.99317,-0.05067c-4.21036,-0.02783 -8.42073,-0.02755 -12.63117,-0.03072c-7.06313,-0.00916 -14.12599,-0.03656 -21.18901,-0.07705c-9.92833,-0.05688 -19.85652,-0.07918 -29.78499,-0.09529c-6.91896,-0.01249 -13.83789,-0.03313 -20.75682,-0.05538c-1.66641,-0.00534 -3.33281,-0.01048 -4.99922,-0.01541c-4.75191,-0.0144 -9.50374,-0.034 -14.25559,-0.06148c-1.43176,-0.00764 -2.86352,-0.01373 -4.29529,-0.01808c-21.72543,-0.06989 -38.26814,-3.34369 -54.6139,-18.63571c-14.02829,-14.58674 -19.91877,-29.75867 -19.87305,-49.78027c-0.00736,-1.396 -0.01595,-2.79198 -0.02566,-4.18796c-0.02205,-3.76062 -0.02516,-7.52102 -0.02326,-11.2817c0.00013,-3.15553 -0.00847,-6.311 -0.01677,-9.46652c-0.01918,-7.45457 -0.02214,-14.90904 -0.01536,-22.36363c0.00663,-7.65215 -0.01621,-15.30382 -0.05332,-22.95588c-0.03084,-6.6034 -0.04204,-13.20665 -0.03816,-19.81012c0.00205,-3.92907 -0.00318,-7.85776 -0.02789,-11.78676c-0.02251,-3.7005 -0.0202,-7.40023 -0.00007,-11.10075c0.00495,-1.97824 -0.01444,-3.95651 -0.03501,-5.93465c0.16497,-17.90292 7.75352,-32.89707 19.90542,-45.75754c15.25384,-14.46558 32.69615,-19.44074 53.21143,-19.39966zm-41.46143,38.27466c-6.1981,7.94091 -10.09661,15.54295 -10.1539,25.72157c-0.0086,1.14227 -0.0172,2.28454 -0.02606,3.46143c-0.00426,1.24422 -0.00852,2.48844 -0.01291,3.77037c-0.00817,1.31769 -0.01635,2.63538 -0.02478,3.99301c-0.02613,4.3629 -0.04152,8.72582 -0.05578,13.08877c-0.00537,1.50697 -0.01074,3.01394 -0.01614,4.52091c-0.02161,6.27352 -0.04035,12.54704 -0.05162,18.82059c-0.01621,8.96323 -0.04934,17.92603 -0.1064,26.8891c-0.03883,6.31701 -0.05825,12.6339 -0.06352,18.95102c-0.00363,3.76535 -0.01547,7.53023 -0.0481,11.29545c-0.03032,3.54853 -0.03631,7.09632 -0.02462,10.64496c0.00032,1.90377 -0.02399,3.80751 -0.04938,5.71112c0.09125,12.74651 4.98342,23.79494 13.52384,33.21764c12.59149,12.17177 26.05784,14.05573 42.8147,14.09106c1.37584,0.00628 2.75168,0.01292 4.12751,0.01991c4.49451,0.02091 8.98902,0.03139 13.48357,0.04137c1.55613,0.00405 3.11225,0.00817 4.66838,0.01235c7.31546,0.01902 14.6309,0.03326 21.94638,0.04161c8.40421,0.00976 16.80816,0.03605 25.21229,0.0765c6.52263,0.0303 13.04519,0.04498 19.5679,0.04828c3.88325,0.00234 7.76622,0.01109 11.64939,0.03646c3.66013,0.02354 7.3198,0.02742 10.97998,0.01724c1.95682,-0.00072 3.91362,0.01819 5.87033,0.03807c14.63083,-0.08439 28.07764,-3.46988 39.06629,-13.61035c11.03078,-11.62649 14.1913,-25.48437 14.11084,-41.10572c0.00525,-1.27301 0.01051,-2.54603 0.01593,-3.85762c0.01355,-3.45867 0.00842,-6.91708 -0.00114,-10.37576c-0.00766,-3.6388 -0.00053,-7.27758 0.00416,-10.91638c0.00544,-6.1067 -0.00169,-12.21328 -0.01602,-18.31996c-0.01633,-7.03754 -0.01103,-14.07481 0.00548,-21.11234c0.01365,-6.06829 0.01551,-12.1365 0.00768,-18.2048c-0.00465,-3.61302 -0.00537,-7.22591 0.00461,-10.83892c0.01036,-4.02984 -0.00404,-8.05924 -0.0207,-12.08906c0.00911,-1.7716 0.00911,-1.7716 0.0184,-3.57898c-0.10383,-13.60549 -4.37797,-24.28571 -13.71909,-34.3114c-11.89663,-11.00176 -26.47707,-13.81276 -42.24511,-13.67334c-1.3947,-0.00215 -2.78939,-0.00604 -4.18407,-0.01151c-3.74164,-0.00958 -7.48279,0.00547 -11.22438,0.02591c-3.93906,0.01775 -7.87811,0.01404 -11.8172,0.01328c-6.60667,0.00186 -13.21315,0.01911 -19.81976,0.04654c-7.61525,0.03149 -15.2303,0.04199 -22.8456,0.04053c-8.14781,-0.00136 -16.29554,0.01254 -24.44333,0.03089c-2.33188,0.00424 -4.66375,0.00568 -6.99564,0.00648c-3.67409,0.00202 -7.348,0.01434 -11.02203,0.03433c-1.97556,0.00854 -3.95115,0.00751 -5.92673,0.00611c-17.00606,0.12122 -30.33562,4.51648 -42.16365,17.29328z"/>
  <path id="svg_3" fill="#FAFAFA" d="m1098.53361,0.2724c1.80364,-0.00857 1.80364,-0.00857 3.64372,-0.0173c1.31634,-0.00112 2.63268,-0.00224 3.98891,-0.00339c1.40318,-0.00463 2.80637,-0.00966 4.20955,-0.01505c3.8127,-0.01311 7.62538,-0.01956 11.4381,-0.02401c2.38816,-0.00293 4.77633,-0.00704 7.16449,-0.0115c7.48901,-0.01368 14.978,-0.02334 22.46702,-0.0272c8.61134,-0.00447 17.22253,-0.02194 25.83383,-0.051c6.67459,-0.02174 13.34913,-0.03171 20.02375,-0.03304c3.97663,-0.00104 7.9531,-0.0068 11.92969,-0.02482c3.75277,-0.01668 7.50528,-0.01855 11.25807,-0.00986c2.00554,0.00111 4.01108,-0.01245 6.01658,-0.02676c11.94457,0.05381 24.81294,1.16132 35.46068,7.00937c0.65677,0.34628 1.31355,0.69255 1.99023,1.04932c16.53067,9.02884 27.77123,23.54758 33.69727,41.32568c1.08224,8.5097 1.15791,17.05947 1.177,25.62451c0.00657,1.30575 0.01314,2.6115 0.01991,3.95682c0.02079,4.28278 0.03137,8.56555 0.04137,12.84836c0.00405,1.48682 0.00817,2.97363 0.01235,4.46045c0.01899,6.98494 0.03324,13.96986 0.04161,20.95482c0.00977,8.01535 0.03613,16.03043 0.0765,24.04569c0.03029,6.23056 0.04498,12.46104 0.04828,18.69168c0.00234,3.70599 0.01108,7.41168 0.03646,11.11759c0.02791,4.1391 0.02341,8.27759 0.01649,12.41678c0.01921,1.80377 0.01921,1.80377 0.03882,3.64398c-0.11007,18.1688 -6.86889,33.42076 -19.50879,46.23932c-0.56461,0.6368 -1.12922,1.2736 -1.71094,1.92969c-8.69008,9.53789 -21.65172,15.26124 -34.28906,17.07031c-2.08734,0.08701 -4.17701,0.12625 -6.26616,0.12699c-1.85647,0.00423 -1.85647,0.00423 -3.75044,0.00854c-1.35865,-0.00194 -2.71729,-0.00399 -4.07593,-0.00613c-1.44115,0.00135 -2.8823,0.00313 -4.32344,0.00531c-3.90523,0.00455 -7.81043,0.00279 -11.71565,-0.00038c-4.09747,-0.00254 -8.19494,-0.00018 -12.29241,0.00138c-6.8856,0.00182 -13.77119,-0.00057 -20.65678,-0.00534c-7.93881,-0.00543 -15.87758,-0.00368 -23.81639,0.00183c-6.83166,0.00455 -13.66331,0.00517 -20.49497,0.00256c-4.07307,-0.00155 -8.14613,-0.00179 -12.2192,0.00154c-3.83561,0.00291 -7.67119,0.00084 -11.50679,-0.0049c-1.39993,-0.00131 -2.79985,-0.00096 -4.19977,0.00127c-20.72451,0.02986 -37.84549,-3.43595 -53.54145,-17.73814c-18.744,-19.6812 -19.92181,-40.96288 -19.81225,-66.60065c0.01282,-3.94607 0.00088,-7.8921 -0.00693,-11.83817c-0.00905,-6.62084 0.00277,-13.2414 0.0267,-19.8622c0.02722,-7.61537 0.01838,-15.23007 -0.00913,-22.84543c-0.02281,-6.5823 -0.02583,-13.1644 -0.01281,-19.74673c0.00773,-3.91219 0.00902,-7.82406 -0.00768,-11.73623c-0.01462,-3.68011 -0.00411,-7.35937 0.02447,-11.03939c0.00959,-1.96623 -0.00493,-3.93254 -0.02064,-5.89873c0.20223,-17.34307 7.34135,-32.91912 19.22062,-45.50669c10.27226,-9.70067 21.04142,-14.54051 34.45703,-18.32031c0.59967,-0.17926 1.19934,-0.35853 1.81719,-0.54322c2.72638,-0.57053 5.27436,-0.58929 8.06092,-0.59722zm-30.87811,37.14044c-0.60071,0.60071 -1.20141,1.20141 -1.82032,1.82031c-6.187,6.68445 -9.29817,14.7547 -9.3134,23.80793c-0.00639,1.72001 -0.00639,1.72001 -0.01292,3.47477c0.00045,1.25411 0.00091,2.50821 0.00137,3.80031c-0.00299,1.33735 -0.00639,2.6747 -0.01017,4.01204c-0.00884,3.63036 -0.01118,7.26069 -0.01182,10.89105c-0.00071,2.27018 -0.00285,4.54035 -0.0055,6.81053c-0.00925,7.92603 -0.01333,15.85204 -0.01255,23.77808c0.0006,7.37762 -0.00994,14.75517 -0.02574,22.13278c-0.0131,6.34155 -0.01844,12.68309 -0.0178,19.02466c0.00025,3.78407 -0.00256,7.56807 -0.01318,11.35212c-0.00972,3.56229 -0.00973,7.12445 -0.00248,10.68674c0.00153,1.92119 -0.00678,3.84238 -0.01544,5.76356c0.04915,13.56798 3.81663,24.69157 13.21698,34.79747c9.69613,8.76915 21.01537,12.93992 33.99196,12.99482c1.16744,0.00716 2.33488,0.01431 3.5377,0.02169c1.90066,0.00403 1.90066,0.00403 3.83972,0.00814c1.35909,0.00628 2.71818,0.01292 4.07726,0.01992c4.45006,0.02095 8.90013,0.03139 13.35023,0.04136c1.53822,0.00405 3.07643,0.00817 4.61464,0.01235c7.2311,0.01904 14.46219,0.03327 21.6933,0.04162c8.3171,0.00975 16.63393,0.03604 24.95093,0.0765c6.44783,0.03027 12.89558,0.04497 19.34349,0.04828c3.84185,0.00233 7.68343,0.01113 11.52521,0.03646c3.6207,0.02348 7.24093,0.02743 10.86169,0.01724c1.94052,-0.00073 3.88102,0.01822 5.82144,0.03806c14.04253,-0.08213 26.75376,-4.27692 37.4354,-13.50879c7.59353,-8.85205 13.10506,-18.78982 13.14044,-30.6215c0.00571,-1.14524 0.01142,-2.29047 0.0173,-3.4704c0.00112,-1.25253 0.00224,-2.50506 0.00339,-3.79555c0.00463,-1.33572 0.00966,-2.67145 0.01505,-4.00717c0.0131,-3.62629 0.01956,-7.25255 0.02401,-10.87886c0.00293,-2.26817 0.00704,-4.53634 0.0115,-6.80452c0.01367,-7.10402 0.02334,-14.20803 0.0272,-21.31206c0.00448,-8.18637 0.02201,-16.37257 0.051,-24.55888c0.02166,-6.33648 0.03171,-12.67291 0.03304,-19.00943c0.00105,-3.78022 0.00689,-7.56029 0.02482,-11.34048c0.01656,-3.55987 0.0186,-7.11946 0.00986,-10.67935c-0.00113,-1.91744 0.01254,-3.83487 0.02676,-5.75225c-0.06112,-12.72176 -3.80392,-22.57867 -12.48984,-32.07033c-5.08046,-4.77473 -10.50442,-7.96966 -16.89453,-10.69922c-1.16789,-0.5298 -1.16789,-0.5298 -2.35938,-1.07031c-7.40113,-2.60573 -15.29563,-2.07774 -23.03637,-2.07495c-1.35425,-0.003 -2.7085,-0.0064 -4.06275,-0.01018c-3.66337,-0.0088 -7.32671,-0.01118 -10.99009,-0.01182c-2.29316,-0.00071 -4.58631,-0.00285 -6.87947,-0.00549c-8.01264,-0.00924 -16.02526,-0.01334 -24.03791,-0.01255c-7.44865,0.0006 -14.89723,-0.00995 -22.34586,-0.02574c-6.41213,-0.01311 -12.82425,-0.01844 -19.2364,-0.01781c-3.82209,0.00026 -7.64412,-0.00254 -11.4662,-0.01317c-3.59762,-0.00974 -7.19512,-0.00972 -10.79275,-0.00249c-1.93509,0.00153 -3.87018,-0.00676 -5.80526,-0.01544c-16.87785,0.06035 -27.96154,4.23393 -39.98756,16.25995z"/>
  <path id="svg_4" fill="#FAFAFB" d="m73.87418,0.02466c1.35865,-0.00408 2.71729,-0.00943 4.07593,-0.01593c3.64471,-0.01352 7.28915,-0.00844 10.93387,0.00114c3.84244,0.00768 7.68486,0.00053 11.52731,-0.00416c6.44861,-0.00544 12.89711,0.00167 19.3457,0.01602c7.4198,0.01632 14.83936,0.01103 22.25915,-0.00548c6.40896,-0.01368 12.81785,-0.0155 19.22682,-0.00768c3.81095,0.00464 7.62179,0.0054 11.43273,-0.00461c3.5855,-0.00877 7.17068,-0.00248 10.75614,0.01468c1.91755,0.00576 3.83512,-0.00297 5.75265,-0.01238c21.00568,0.15097 38.31062,6.78337 53.65845,21.03158c9.71837,10.04283 17.8898,25.01797 17.9664,39.17719c0.0086,1.1856 0.0172,2.3712 0.02606,3.59273c0.00639,1.94645 0.00639,1.94645 0.01291,3.93223c0.00791,1.38348 0.01618,2.76696 0.02478,4.15044c0.02619,4.54391 0.04154,9.08783 0.05579,13.63179c0.00536,1.56971 0.01074,3.13943 0.01613,4.70914c0.02163,6.53855 0.04036,13.07709 0.05162,19.61567c0.01619,9.33615 0.04924,18.67187 0.1064,28.00786c0.03891,6.58117 0.05826,13.16223 0.06352,19.74351c0.00363,3.92086 0.01538,7.84127 0.04811,11.76201c0.24893,31.35269 0.24893,31.35269 -5.55922,44.05243c-0.45614,1.02559 -0.91227,2.05118 -1.38223,3.10785c-7.82326,16.63243 -23.43372,27.2925 -40.11777,33.70465c-4.81373,1.63323 -8.59252,2.31496 -13.70201,2.33467c-1.91112,0.01074 -1.91112,0.01074 -3.86084,0.02169c-1.40996,0.00284 -2.81992,0.00555 -4.22987,0.00815c-1.48687,0.00626 -2.97374,0.01291 -4.46061,0.01991c-4.88299,0.02102 -9.76599,0.0314 -14.64901,0.04136c-1.68494,0.00405 -3.36988,0.00817 -5.05482,0.01235c-7.92201,0.01906 -15.84402,0.03328 -23.76606,0.04162c-9.12137,0.00975 -18.2425,0.03602 -27.36378,0.0765c-7.0635,0.03026 -14.12693,0.04498 -21.19049,0.04828c-4.21188,0.00234 -8.4235,0.01117 -12.6353,0.03646c-3.97032,0.02345 -7.9402,0.02744 -11.91056,0.01724c-1.44747,-0.00049 -2.89497,0.00571 -4.34237,0.01955c-18.20211,0.16421 -32.82709,-5.60722 -46.02569,-18.1934c-0.76183,-0.75797 -1.52367,-1.51594 -2.30859,-2.29688c-0.71027,-0.67547 -1.42055,-1.35093 -2.15234,-2.04687c-6.17712,-6.30754 -9.73392,-13.76253 -12.84766,-21.95313c-0.26142,-0.68512 -0.52283,-1.37025 -0.79217,-2.07613c-2.50369,-7.36267 -2.64534,-14.31441 -2.62775,-22.03983c-0.00736,-1.39585 -0.01595,-2.79169 -0.02567,-4.18752c-0.02208,-3.76481 -0.02515,-7.5294 -0.02325,-11.29427c0.00012,-3.15796 -0.00847,-6.31588 -0.01678,-9.47382c-0.01918,-7.46079 -0.02213,-14.92147 -0.01536,-22.38228c0.00663,-7.65952 -0.01619,-15.31856 -0.05331,-22.97798c-0.03084,-6.60762 -0.04204,-13.2151 -0.03816,-19.8228c0.00205,-3.93243 -0.00319,-7.86449 -0.0279,-11.79686c-0.02251,-3.70459 -0.02019,-7.40841 -0.00007,-11.11302c0.00496,-1.98064 -0.01443,-3.9613 -0.03501,-5.94184c0.15983,-17.36444 7.28493,-33.00312 19.21793,-45.58115c15.54588,-14.74865 33.60589,-19.80404 54.65625,-19.70068zm-41.21875,36.38818c-8.90199,10.67508 -11.60429,21.04928 -11.54932,34.78638c-0.00871,1.34836 -0.01909,2.69671 -0.03097,4.04504c-0.02657,3.63046 -0.02796,7.26049 -0.02288,10.89102c0.00216,3.04628 -0.00766,6.09247 -0.01721,9.13873c-0.02211,7.19568 -0.0231,14.39114 -0.01097,21.58683c0.01207,7.38757 -0.01253,14.77438 -0.05514,22.16183c-0.03539,6.37496 -0.04721,12.74967 -0.04072,19.12473c0.0036,3.79328 -0.00139,7.58602 -0.02943,11.37921c-0.02542,3.57178 -0.02103,7.14239 0.00482,10.71415c0.00688,1.91046 -0.01543,3.82095 -0.03913,5.73127c0.15141,12.65945 4.53264,23.19781 13.44329,32.25722c6.99804,6.50899 13.15366,10.38018 22.34766,13.18359c0.99,0.33 1.98,0.66 3,1c1.83093,0.099 3.66525,0.1393 5.49884,0.14717c1.7154,0.01074 1.7154,0.01074 3.46545,0.02169c1.25605,0.00269 2.51211,0.00538 3.80622,0.00815c1.33569,0.00626 2.67139,0.01291 4.00708,0.01991c4.39183,0.02104 8.78366,0.03141 13.17554,0.04136c1.51618,0.00405 3.03236,0.00817 4.54854,0.01235c7.13287,0.01907 14.26573,0.03329 21.39862,0.04162c8.20447,0.00974 16.40867,0.03597 24.61306,0.0765c6.35693,0.03031 12.71378,0.04498 19.07079,0.04828c3.78831,0.00233 7.57633,0.01109 11.36457,0.03646c3.57552,0.02355 7.15057,0.02741 10.72616,0.01724c1.91154,-0.00072 3.82306,0.01818 5.73449,0.03806c15.35612,-0.09056 28.88394,-4.10961 40.34064,-14.63379c10.22437,-10.71296 12.55092,-22.86697 12.54053,-37.07129c0.00671,-1.31959 0.01343,-2.63918 0.02035,-3.99876c0.0176,-3.6056 0.02236,-7.2111 0.02363,-10.81674c0.00143,-2.25766 0.00571,-4.5153 0.011,-6.77296c0.01848,-7.89061 0.02667,-15.78116 0.0251,-23.67179c-0.0012,-7.33171 0.01988,-14.66312 0.05148,-21.99475c0.02624,-6.31365 0.03688,-12.62721 0.0356,-18.94091c-0.0005,-3.7624 0.00507,-7.52454 0.02636,-11.28688c0.01951,-3.54276 0.01942,-7.08501 0.00497,-10.62779c-0.00306,-1.90271 0.0135,-3.80543 0.03088,-5.70806c-0.06839,-9.43789 -1.7061,-18.43935 -7.9574,-25.86007c-0.60844,-0.72574 -1.21687,-1.45148 -1.84375,-2.19922c-2.16713,-2.42816 -4.29963,-4.74267 -6.71875,-6.92578c-0.52594,-0.48082 -1.05187,-0.96164 -1.59375,-1.45703c-9.95529,-8.33122 -21.99452,-10.29386 -34.59668,-10.14233c-1.35528,-0.00187 -2.71057,-0.00592 -4.06584,-0.01195c-3.63433,-0.00986 -7.26786,0.011 -10.90207,0.03848c-3.82694,0.02407 -7.65388,0.02089 -11.48088,0.0213c-6.41841,0.00461 -12.83652,0.02812 -19.25482,0.06447c-7.39713,0.0418 -14.79399,0.05932 -22.19122,0.06262c-7.91621,0.00361 -15.83232,0.02249 -23.74849,0.04712c-2.26488,0.0062 -4.52975,0.00986 -6.79463,0.01304c-3.56904,0.00594 -7.13789,0.02237 -10.70685,0.0466c-1.9183,0.01087 -3.83664,0.01227 -5.75496,0.0133c-15.32201,0.13141 -29.17751,3.62171 -39.90981,15.30438z"/>
  <path id="svg_5" fill="#FBFBFC" d="m83.65543,53.41284c32.67,0 65.34,0 99,0c0,9.9 0,19.8 0,30c-21.12,0 -42.24,0 -64,0c0,9.9 0,19.8 0,30c19.14,0 38.28,0 58,0c0,9.24 0,18.48 0,28c-19.14,0 -38.28,0 -58,0c0,10.56 0,21.12 0,32c21.78,0 43.56,0 66,0c0,9.24 0,18.48 0,28c-33.33,0 -66.66,0 -101,0c0,-48.84 0,-97.68 0,-148z"/>
  <path id="svg_6" fill="#F9F9F9" d="m574.65543,122.41284c43.23,0 86.46,0 131,0c0,10.23 0,20.46 0,31c-15.84,0 -31.68,0 -48,0c0,38.94 0,77.88 0,118c-11.88,0 -23.76,0 -36,0c0,-39.27 0,-78.54 0,-119c-15.51,0 -31.02,0 -47,0c0,-9.9 0,-19.8 0,-30z"/>
  <path id="svg_7" fill="#FCFCFC" d="m1121.65543,52.41284c11.55,0 23.1,0 35,0c0,39.27 0,78.54 0,119c21.12,0 42.24,0 64,0c0,9.57 0,19.14 0,29c-32.67,0 -65.34,0 -99,0c0,-48.84 0,-97.68 0,-148z"/>
  <path transform="rotate(-10 903.032 205.977)" id="svg_8" fill="#F9F9F9" d="m975.21403,174.88159c0.9407,-0.00383 1.8814,-0.00765 2.8506,-0.0116c1.98967,-0.00272 3.97938,0.00466 5.96898,0.02137c3.04468,0.02138 6.08699,0.00022 9.13159,-0.02539c1.93295,0.00264 3.8659,0.00776 5.79883,0.01562c0.91052,-0.0081 1.82103,-0.01619 2.75914,-0.02454c6.30777,0.09347 6.30777,0.09347 9.50258,2.45862c2.65311,3.89177 2.12672,7.5754 1.42969,12.09717c-1.05689,3.53827 -2.30301,6.9498 -3.63282,10.39453c-1.70331,4.49187 -3.04503,9.05429 -4.375,13.66797c-2.82098,8.3519 -2.82098,8.3519 -5.99218,9.9375c-3.05906,0.41339 -5.94532,0.46661 -9,0c-2.5625,-2 -2.5625,-2 -4,-5c-0.18426,-2.68148 -0.06344,-5.30807 0,-8c-0.54189,0.29656 -1.08378,0.59313 -1.64209,0.89868c-39.54713,21.51401 -84.6838,32.92049 -129.35791,21.10132c-0.6816,-0.1766 -1.36319,-0.3532 -2.06543,-0.53516c-20.09534,-5.41221 -37.10329,-17.16963 -51.93457,-31.46484c-0.71801,-0.68062 -1.43602,-1.36125 -2.17579,-2.0625c-3.07332,-3.15339 -5.2576,-5.62615 -5.63671,-10.125c0.8125,-3.8125 0.8125,-3.8125 3.375,-6.875c3.4375,-1.9375 3.4375,-1.9375 6.8125,-2.1875c4.97183,1.71443 7.89698,4.6271 11.625,8.25c13.30234,12.70941 29.93935,23.08185 48.18554,26.46289c1.7299,0.33013 3.45669,0.67781 5.17701,1.05469c8.17781,1.70105 16.31519,1.9666 24.63745,1.98242c0.74133,0.00201 1.48266,0.00403 2.24646,0.0061c29.09876,-0.05297 56.64497,-9.12029 81.75354,-23.5061c-0.92124,-0.07239 -0.92124,-0.07239 -1.86109,-0.14624c-0.80768,-0.0742 -1.61535,-0.1484 -2.44751,-0.22485c-0.79978,-0.06889 -1.59956,-0.13777 -2.42358,-0.20874c-2.26782,-0.42017 -2.26782,-0.42017 -5.33032,-2.48267c-2.6983,-4.09097 -2.55315,-6.08928 -1.9375,-10.9375c2.34786,-5.56366 7.32274,-4.57771 12.55859,-4.53125z"/>
  <path transform="rotate(-1 384.238 97.6775)" stroke="null" id="svg_9" fill="#F9F9F9" d="m452.04337,53.73079c2.66391,0.70589 3.95455,1.76539 5.98456,3.58667c0.70878,0.63446 1.41755,1.26892 2.14782,1.92261c4.45266,4.1625 8.76975,8.44961 13.08343,12.74926c4.20795,4.16442 8.50042,8.11915 13.08244,11.88868c2.46885,2.22784 2.60108,3.40041 2.92294,6.74023c-0.38883,4.49145 -1.16399,5.53389 -4.40537,8.6875c-2.9962,1.6811 -6.13391,2.95787 -9.32151,4.25c-8.00392,3.35907 -15.79167,6.95483 -23.4559,11.00684c-4.20522,2.14518 -7.30278,3.40493 -12.17014,2.74316c-2.91956,-1.98818 -4.71848,-3.47604 -5.60248,-6.9375c-0.27554,-3.95601 0.17419,-5.64711 2.66556,-8.875c2.91194,-2.16889 5.72437,-3.74204 9.06613,-5.1875c-20.45298,-3.8103 -44.31557,-1.88476 -64.35672,3c-1.01313,0.2467 -2.02626,0.49339 -3.07009,0.74756c-13.89384,3.48967 -26.99693,7.99708 -39.83439,14.25244c-0.76639,0.36964 -1.53278,0.73928 -2.32239,1.12012c-14.55102,7.08017 -28.65671,15.17929 -42.0266,24.22754c-3.28778,2.05652 -4.94145,2.37017 -8.77084,1.65234c-3.64401,-3.0123 -5.91606,-5.1221 -6.44844,-9.8125c0.41203,-4.11402 1.49246,-5.19078 4.40537,-8.1875c2.89337,-2.09217 5.93039,-3.92097 9.00228,-5.75c0.86483,-0.52368 1.72965,-1.04736 2.62068,-1.58691c2.58965,-1.56378 5.1872,-3.1143 7.78621,-4.66309c1.38219,-0.83303 2.7642,-1.66634 4.146,-2.5c12.08481,-7.2449 24.05832,-14.00493 37.5494,-18.42187c2.77262,-0.91916 5.41873,-1.9456 8.10444,-3.07813c7.71431,-3.02796 15.68847,-5.08339 23.7507,-7c0.97577,-0.23429 1.95153,-0.46857 2.95686,-0.70996c23.45358,-5.43032 47.69337,-5.92608 71.61521,-3.29004c-0.57809,-0.5543 -1.15616,-1.10859 -1.75177,-1.67969c-0.74928,-0.72445 -1.49854,-1.4489 -2.27053,-2.19531c-1.11995,-1.07894 -1.11995,-1.07894 -2.26254,-2.17969c-3.07132,-3.16548 -3.27339,-5.60936 -3.18432,-9.96875c0.27533,-1.97656 0.27533,-1.97656 1.80764,-4.47656c2.88155,-1.69248 5.1856,-2.24964 8.55636,-2.07495z"/>
 </g>
</svg>