<?xml version="1.0" encoding="UTF-8"?>
<svg version="1.1" xmlns="http://www.w3.org/2000/svg" width="100" height="100">
<path d="M0 0 C3.85660454 0.24816499 5.52744509 2.2943462 8.01171875 5.0703125 C9.14963867 6.29041016 9.14963867 6.29041016 10.31054688 7.53515625 C11.89020022 9.25629047 13.45550743 10.99070678 15.00585938 12.73828125 C18.95227402 17.20762975 18.95227402 17.20762975 24.27416992 19.33984375 C26.58260479 19.06322244 28.74448032 18.55741129 31 18 C32.48574297 17.88984869 33.97523441 17.82196522 35.46484375 17.796875 C36.19695068 17.78414551 36.92905762 17.77141602 37.68334961 17.75830078 C45.24326655 17.73046181 51.98612233 17.84796578 59 21 C59.86496094 21.37898438 60.72992188 21.75796875 61.62109375 22.1484375 C69.7546924 26.1402462 80.69178335 33.74258475 85 42 C83.45100385 49.31079246 75.4255827 55.53282779 69.5 59.625 C67 61 67 61 65 61 C68.16674195 64.77198955 71.37636094 68.44580077 74.94921875 71.83984375 C75.45283936 72.32219482 75.95645996 72.8045459 76.4753418 73.30151367 C77.48343836 74.25924577 78.50178174 75.20631803 79.53051758 76.1418457 C80.9375 77.484375 80.9375 77.484375 83 80 C82.91272323 83.07650604 82.19330695 83.80669305 80 86 C76.59365057 85.67541762 74.88872559 84.26786722 72.5131073 81.90751648 C71.84144531 81.24720428 71.16978333 80.58689209 70.47776794 79.90657043 C69.75186966 79.17774155 69.02597137 78.44891266 68.27807617 77.69799805 C67.5053537 76.93374512 66.73263123 76.16949219 65.93649292 75.38208008 C63.38075563 72.84977175 60.83640249 70.30638052 58.29296875 67.76171875 C56.52538682 66.00123343 54.75750466 64.24104952 52.98933411 62.4811554 C49.28463083 58.78990956 45.58583007 55.09283916 41.89086914 51.3918457 C37.61648094 47.11080803 33.32752785 42.84476543 29.03133219 38.58562249 C24.90043334 34.48906605 20.78344268 30.3787715 16.67174721 26.26294899 C14.91932857 24.51222906 13.16289967 22.7655141 11.4024868 21.02283287 C8.94793741 18.59030222 6.5096465 16.14256523 4.07495117 13.69018555 C3.33893173 12.96742935 2.60291229 12.24467316 1.84458923 11.50001526 C1.18702637 10.83124359 0.5294635 10.16247192 -0.14802551 9.47343445 C-0.7263252 8.89584727 -1.30462488 8.3182601 -1.9004488 7.72317028 C-3 6 -3 6 -2.80324841 3.90791035 C-2 2 -2 2 0 0 Z M31 27 C32.39187719 30.36370321 33.79431396 32.21906331 37 34 C38.99956611 34.04165763 41.00043389 34.04165763 43 34 C45.55040714 34.85013571 46.65294576 35.53147678 48.25 37.6875 C49 40 49 40 48.8125 43.4375 C48.65926973 47.16635681 48.65926973 47.16635681 51.375 49.9375 C53.70571568 52.20594052 53.70571568 52.20594052 56 52 C58.63106703 47.39299107 58.7417663 43.19236413 58 38 C55.95184527 32.50332429 52.3302264 28.70069211 47.25390625 25.83984375 C41.72251555 23.77875363 36.10684092 24.08347847 31 27 Z M64 33 C64 39.6 64 46.2 64 53 C67.54929537 50.87042278 69.62658298 49.62334339 72.3125 46.8125 C73.199375 45.884375 74.08625 44.95625 75 44 C73.55661511 40.584241 71.75105832 38.63973737 68.9375 36.25 C68.22464844 35.63640625 67.51179688 35.0228125 66.77734375 34.390625 C65.24485712 32.89729751 65.24485712 32.89729751 64 33 Z " fill="#DBDBDB" transform="translate(10,7)"/>
<path d="M0 0 C3.54433654 1.41773462 4.33806119 2.67612238 6 6 C7.96672915 7.1500831 7.96672915 7.1500831 10 8 C12.55240131 10.55240131 12.21899074 11.59133415 12.3125 15.125 C12.75547315 20.85361891 14.12573248 24.72216295 18 29 C22.37754304 32.41448357 25.12036023 33.13084259 30.625 33.375 C35.50677723 33.62345359 35.50677723 33.62345359 37.81640625 35.38671875 C39.1875 37.0625 39.1875 37.0625 41 40 C34.69714702 43.15142649 22.25423257 41.71875128 15.5625 39.875 C3.08614874 35.25254396 -6.90761251 27.52010374 -15 17 C-13.584092 12.54428953 -11.39547334 10.04758866 -8.0625 6.8125 C-7.18722656 5.95269531 -6.31195313 5.09289063 -5.41015625 4.20703125 C-3 2 -3 2 0 0 Z M1.0625 9.25 C0.35222656 9.85328125 -0.35804687 10.4565625 -1.08984375 11.078125 C-2.97077958 12.97060031 -3.96892977 14.55998041 -5 17 C-3.92319498 18.13125022 -2.83824365 19.25474919 -1.75 20.375 C-0.84507813 21.31472656 -0.84507813 21.31472656 0.078125 22.2734375 C2.16933707 24.30555369 2.16933707 24.30555369 6 26 C6 19.4 6 12.8 6 6 C4.02985006 6 2.47116283 8.0374801 1.0625 9.25 Z " fill="#DBDBDB" transform="translate(20,34)"/>
</svg>
