<?xml version="1.0" encoding="UTF-8"?>
<svg version="1.1" xmlns="http://www.w3.org/2000/svg" width="96" height="96">
<path d="M0 0 C11.67486807 8.04829762 11.67486807 8.04829762 15.10180664 12.63989258 C15.12237478 15.92565207 14.39244339 17.28720267 12.30883789 19.81567383 C-1.51083376 32.14741998 -16.77223182 39.75754635 -35.55834961 39.02270508 C-41.44100268 38.6161231 -46.54686307 37.09258563 -51.89819336 34.63989258 C-52.79538086 34.23899414 -53.69256836 33.8380957 -54.61694336 33.42504883 C-60.27451494 30.62064912 -65.16295065 27.06828015 -70.02319336 23.07739258 C-70.59223389 22.61840576 -71.16127441 22.15941895 -71.74755859 21.68652344 C-74.10525115 19.67290901 -75.76247609 17.93546475 -77.06225586 15.10473633 C-76.89819336 12.63989258 -76.89819336 12.63989258 -74.97631836 10.21020508 C-52.37579489 -9.33113151 -26.55770448 -17.56252989 0 0 Z M-48.25366211 1.62817383 C-52.10658223 6.3413659 -51.42273307 11.80251494 -50.89819336 17.63989258 C-49.1802276 23.30090024 -44.65076508 27.35389171 -39.89819336 30.63989258 C-34.55621489 32.42055207 -28.18809366 32.64011868 -22.76538086 30.99145508 C-17.44158355 28.198252 -12.79937392 23.34343427 -10.89819336 17.63989258 C-10.75339706 15.68514249 -10.67751834 13.72477878 -10.64819336 11.76489258 C-10.60952148 10.22188477 -10.60952148 10.22188477 -10.57006836 8.64770508 C-10.94894377 5.1746805 -11.7523977 3.38227716 -13.89819336 0.63989258 C-16.7164896 -0.96732857 -19.74937139 -1.62454261 -22.89819336 -2.36010742 C-23.59041992 -2.52768555 -24.28264648 -2.69526367 -24.99584961 -2.86791992 C-32.35266289 -4.16051889 -42.44604626 -3.27410887 -48.25366211 1.62817383 Z M-3.89819336 6.63989258 C-3.9587793 7.53192383 -4.01936523 8.42395508 -4.08178711 9.34301758 C-4.16557617 10.51348633 -4.24936523 11.68395508 -4.33569336 12.88989258 C-4.4169043 14.05004883 -4.49811523 15.21020508 -4.58178711 16.40551758 C-4.83067123 18.94966634 -5.17934278 21.19942506 -5.89819336 23.63989258 C-1.80855517 21.35450653 1.56542768 18.68282331 5.10180664 15.63989258 C3.585087 11.08973365 -0.06710389 9.13931994 -3.89819336 6.63989258 Z M-63.52319336 10.63989258 C-64.4706543 11.47520508 -64.4706543 11.47520508 -65.43725586 12.32739258 C-65.91936523 12.76051758 -66.40147461 13.19364258 -66.89819336 13.63989258 C-65.47238476 17.09185025 -63.80073002 18.74131817 -60.77319336 20.88989258 C-60.04874023 21.41067383 -59.32428711 21.93145508 -58.57788086 22.46801758 C-58.02358398 22.85473633 -57.46928711 23.24145508 -56.89819336 23.63989258 C-56.56819336 22.97989258 -56.23819336 22.31989258 -55.89819336 21.63989258 C-56.22819336 20.97989258 -56.55819336 20.31989258 -56.89819336 19.63989258 C-57.1267745 17.60241627 -57.30843614 15.55948955 -57.46069336 13.51489258 C-57.54448242 12.41918945 -57.62827148 11.32348633 -57.71459961 10.19458008 C-57.77518555 9.3515332 -57.83577148 8.50848633 -57.89819336 7.63989258 C-60.66861445 7.63989258 -61.47984292 8.82358107 -63.52319336 10.63989258 Z " fill="#DCDCDC" transform="translate(78.898193359375,33.360107421875)"/>
<path d="M0 0 C3.55247432 0.87379409 4.94828114 2.4927342 6.9375 5.4765625 C7.63597125 8.3162489 7.63597125 10.6368761 6.9375 13.4765625 C4.94828114 16.4603908 3.55247432 18.07933091 0 18.953125 C-3.92313492 19.23547183 -5.73362371 18.69581336 -9.0625 16.4765625 C-11.28175086 13.14768621 -11.82140933 11.33719742 -11.5390625 7.4140625 C-10.07519871 1.46261629 -5.59135555 -0.40240816 0 0 Z " fill="#DBDBDB" transform="translate(50.0625,35.5234375)"/>
</svg>
