<?xml version="1.0" encoding="UTF-8"?>
<svg version="1.1" xmlns="http://www.w3.org/2000/svg" width="512" height="512">
<path d="M0 0 C6.7232036 5.3691402 12.70798038 11.63506676 18.76611328 17.72680664 C21.11391517 20.08314156 23.47983382 22.42015177 25.84765625 24.75634766 C38.99006587 37.83741834 48.52187713 48.91032899 48.8046875 68.14892578 C48.63878083 89.25389319 36.65921222 100.96411066 22.4140625 115.02783203 C21.73182617 115.70144775 21.04958984 116.37506348 20.34667969 117.0690918 C18.3671875 118.77392578 18.3671875 118.77392578 16.41489369 119.65541059 C14.0495028 120.94745417 13.12996113 122.15868226 11.62439632 124.37500286 C8.23844225 129.07831884 4.35168747 133.0740022 0.25184631 137.1566925 C-0.54871754 137.96178747 -1.34928139 138.76688243 -2.17410475 139.59637421 C-4.84303382 142.27790766 -7.51900302 144.95229867 -10.19506836 147.62670898 C-12.11654818 149.55309274 -14.03655972 151.48093771 -15.9566803 153.40867615 C-20.62211356 158.09066712 -25.29303839 162.76714129 -29.96619838 167.44141898 C-33.76461798 171.24079094 -37.5614498 175.0417424 -41.35717964 178.8438015 C-52.12785536 189.63207041 -62.90269377 200.41615677 -73.68292075 211.19488166 C-74.2631404 211.77502139 -74.84336005 212.35516113 -75.44116211 212.95288086 C-76.02209342 213.53373041 -76.60302474 214.11457996 -77.20156003 214.71303102 C-86.62635677 224.13701399 -96.04112398 233.57094676 -105.45141595 243.00941143 C-115.12263855 252.70935859 -124.80129589 262.4018321 -134.48775584 272.08656377 C-139.92247654 277.52062073 -145.35408037 282.9577108 -150.77769279 288.40285683 C-155.39242831 293.0357978 -160.01402647 297.66175432 -164.64466112 302.27880631 C-167.00607428 304.63368839 -169.3629785 306.99265488 -171.71354294 309.35839462 C-174.26338869 311.92363441 -176.82523022 314.47626281 -179.39048767 317.02607727 C-180.12863093 317.77450765 -180.86677419 318.52293804 -181.62728542 319.29404813 C-186.7777156 324.37611939 -191.39319629 327.42256746 -198.65200806 328.70414734 C-199.36646088 328.83448364 -200.0809137 328.96481995 -200.8170166 329.09910583 C-201.9548761 329.29331871 -201.9548761 329.29331871 -203.11572266 329.49145508 C-204.34414383 329.71156754 -204.34414383 329.71156754 -205.59738159 329.93612671 C-208.28741026 330.41558031 -210.97944516 330.88237878 -213.671875 331.34814453 C-215.55894468 331.67972672 -217.4459369 332.01175005 -219.33285522 332.3441925 C-223.28423575 333.03820474 -227.23667602 333.72574483 -231.18994141 334.40893555 C-236.2253216 335.2798238 -241.25739731 336.16836082 -246.28876686 337.06209087 C-250.18591934 337.7519859 -254.08483729 338.43145492 -257.98432541 339.10801125 C-259.83862501 339.43115362 -261.69234631 339.75763471 -263.54542923 340.08768272 C-289.44164564 344.6856861 -289.44164564 344.6856861 -297.1953125 341.14892578 C-303.37903796 335.12375738 -303.37903796 335.12375738 -303.90315247 330.27070618 C-304.00491768 320.00966747 -302.27343154 310.24869512 -300.45703125 300.19189453 C-300.12716398 298.32405104 -299.79806114 296.4560724 -299.46968079 294.58796692 C-298.78310728 290.69627516 -298.08894202 286.80604196 -297.38891602 282.91674805 C-296.49509736 277.94850396 -295.61811646 272.97746774 -294.74647808 268.00529003 C-294.07029087 264.15653837 -293.38643924 260.30917984 -292.70017433 256.46221352 C-292.37400004 254.62987143 -292.04988847 252.79716084 -291.72794151 250.96407127 C-291.27631633 248.40081108 -290.81467462 245.83954908 -290.3503418 243.27856445 C-290.15612892 242.16012398 -290.15612892 242.16012398 -289.95799255 241.01908875 C-288.12397113 231.06475394 -284.93545415 225.33740422 -277.75088501 218.27726746 C-276.93922264 217.45992184 -276.12756028 216.64257621 -275.29130208 215.80046254 C-273.04773449 213.54624573 -270.79336653 211.30353818 -268.53385592 209.065323 C-266.09529081 206.64429174 -263.67123567 204.20880565 -261.24531555 201.77511597 C-256.4958071 197.01495038 -251.73312667 192.26817871 -246.96586324 187.52580192 C-241.41350096 182.00140076 -235.87448558 176.46369735 -230.33600418 170.92538587 C-220.4538908 161.04445915 -210.55994494 151.17546672 -200.65917969 141.31323242 C-191.05341731 131.74482873 -181.45575227 122.16840172 -171.8671875 112.58276367 C-171.27639057 111.99214955 -170.68559363 111.40153543 -170.07689376 110.79302391 C-169.48711609 110.20342521 -168.89733843 109.61382651 -168.28968871 109.00636119 C-167.102185 107.8192229 -165.91467781 106.63208809 -164.72716713 105.44495678 C-164.14151884 104.85949401 -163.55587055 104.27403123 -162.95247535 103.67082716 C-153.81104089 94.53296338 -144.66217241 85.40254504 -135.51257396 76.27285686 C-132.19748155 72.96478425 -128.88350825 69.65559524 -125.57034566 66.3455899 C-120.31590613 61.09620067 -115.05829986 55.85002964 -109.79399134 50.61053588 C-107.38891513 48.21667607 -104.98541221 45.82129344 -102.5861721 43.42158318 C-99.9849468 40.82161284 -97.37767401 38.22786457 -94.76870728 35.63566589 C-94.01101913 34.87556266 -93.25333099 34.11545944 -92.4726826 33.33232278 C-89.03022511 29.92454797 -85.88958678 27.14860323 -81.6328125 24.77392578 C-80.69342882 23.38446376 -79.75986747 21.99002016 -78.87939453 20.5625 C-71.66802648 10.21575453 -60.12982821 -0.8508461 -48.6328125 -6.22607422 C-47.53453125 -6.75201172 -47.53453125 -6.75201172 -46.4140625 -7.28857422 C-30.9406855 -13.22356814 -12.897527 -9.57537087 0 0 Z M-39.6328125 27.77392578 C-40.6228125 29.09392578 -41.6128125 30.41392578 -42.6328125 31.77392578 C-26.1328125 48.27392578 -9.6328125 64.77392578 7.3671875 81.77392578 C13.54117168 77.08674391 13.54117168 77.08674391 15.703125 70.62548828 C15.71601563 69.89072266 15.72890625 69.15595703 15.7421875 68.39892578 C15.78472656 67.30451172 15.78472656 67.30451172 15.828125 66.18798828 C14.57811192 59.64130961 8.64962674 54.76322007 4.1171875 50.25830078 C3.42206055 49.56126038 2.72693359 48.86421997 2.01074219 48.14605713 C0.54737878 46.68133845 -0.91849046 45.21911945 -2.38671875 43.75927734 C-4.6325547 41.52418234 -6.86748335 39.27857799 -9.1015625 37.03173828 C-10.52800473 35.60661713 -11.95506696 34.18211622 -13.3828125 32.75830078 C-14.04958008 32.08748474 -14.71634766 31.4166687 -15.40332031 30.7255249 C-16.03077148 30.10437805 -16.65822266 29.4832312 -17.3046875 28.84326172 C-17.8522168 28.29732361 -18.39974609 27.7513855 -18.96386719 27.18890381 C-22.89884581 23.85272002 -26.36187624 23.33799962 -31.3828125 23.45361328 C-34.88998961 23.95289891 -36.98144529 25.50132531 -39.6328125 27.77392578 Z M-66.6328125 54.77392578 C-67.2928125 56.09392578 -67.9528125 57.41392578 -68.6328125 58.77392578 C-52.4628125 74.94392578 -36.2928125 91.11392578 -19.6328125 107.77392578 C-18.3128125 107.11392578 -16.9928125 106.45392578 -15.6328125 105.77392578 C-20.69423193 99.65976456 -26.19232024 94.06935936 -31.80859375 88.46533203 C-32.78425942 87.48899155 -33.7597767 86.51250277 -34.7351532 85.53587341 C-36.76493252 83.50462966 -38.79648504 81.47518129 -40.8293457 79.44702148 C-43.44000299 76.84210664 -46.04608343 74.23266589 -48.6508913 71.62190342 C-50.65729386 69.61190008 -52.66605604 67.60426862 -54.67555809 65.59736443 C-55.63840395 64.63518683 -56.60050428 63.6722626 -57.56185341 62.70858955 C-58.89730347 61.37061605 -60.2362793 60.03616441 -61.57543945 58.7019043 C-62.33677689 57.94136246 -63.09811432 57.18082062 -63.88252258 56.39723206 C-65.35714939 54.66059088 -65.35714939 54.66059088 -66.6328125 54.77392578 Z M-97.81694233 85.699893 C-98.3947589 86.28353524 -98.97257546 86.86717749 -99.56790161 87.46850586 C-100.18214332 88.08103871 -100.79638502 88.69357157 -101.42924011 89.32466602 C-103.50074977 91.39286295 -105.56499783 93.4681619 -107.62939453 95.54345703 C-109.10707387 97.0217001 -110.58519292 98.49950373 -112.0637207 99.97689819 C-116.08862668 104.00122816 -120.10731792 108.03171379 -124.12496424 112.06328964 C-128.32013703 116.27092854 -132.52093924 120.47293924 -136.72116089 124.67553711 C-144.67953014 132.64013328 -152.6327856 140.60981591 -160.58423984 148.58131504 C-169.63459675 157.65399332 -178.69060419 166.72102234 -187.74710298 175.78756905 C-206.38199022 194.44338573 -225.00973031 213.10632527 -243.6328125 231.77392578 C-240.94063295 234.46610534 -237.85130803 235.27993919 -234.3203125 236.46142578 C-233.65580078 236.69925781 -232.99128906 236.93708984 -232.30664062 237.18212891 C-228.27699349 238.54128783 -225.66283322 239.1495939 -221.6328125 237.77392578 C-219.48006715 235.99520013 -217.58374766 234.24796374 -215.64067078 232.26280212 C-215.05653422 231.68208326 -214.47239766 231.1013644 -213.87055999 230.503048 C-211.914083 228.55316379 -209.97225254 226.58931889 -208.0300293 224.62524414 C-206.63115397 223.22524065 -205.23139749 221.82611712 -203.83082581 220.42781067 C-200.02884547 216.62697959 -196.23933762 212.81392764 -192.45191169 208.99860072 C-188.49256786 205.01427877 -184.52191955 201.04125575 -180.55244446 197.06703186 C-173.03638519 189.53853231 -165.53058183 181.99989289 -158.0283888 174.45757824 C-149.48735024 165.87185489 -140.9349724 157.29746534 -132.38161218 148.72401989 C-114.78601179 131.08659131 -97.20473518 113.43494201 -79.6328125 95.77392578 C-81.40284197 91.96917066 -83.64634175 89.49303333 -86.6328125 86.52392578 C-87.5196875 85.63189453 -88.4065625 84.73986328 -89.3203125 83.82080078 C-93.34104449 80.26190963 -94.40905309 82.31777919 -97.81694233 85.699893 Z M-60.63839263 122.48404652 C-61.18965467 123.03567729 -61.74091671 123.58730806 -62.30888367 124.15565491 C-63.18842727 125.02416845 -63.18842727 125.02416845 -64.08573943 125.91022772 C-66.0629081 127.86524762 -68.03276219 129.82747655 -70.00268555 131.78979492 C-71.41307808 133.1876639 -72.82385371 134.58514644 -74.23498535 135.98226929 C-78.07681536 139.78922853 -81.91173053 143.60307756 -85.74439216 147.41926503 C-88.13674844 149.80133269 -90.53003242 152.18246477 -92.92353249 154.5633831 C-100.40541348 162.00714741 -107.88245648 169.45572983 -115.35362214 176.91024882 C-123.98967378 185.52674305 -132.64202365 194.1264267 -141.30859536 202.71222025 C-147.99859909 209.34199012 -154.67325907 215.98695652 -161.33652908 222.64359373 C-165.32022187 226.62257569 -169.31030937 230.594616 -173.31665611 234.55079842 C-177.08440103 238.27212518 -180.8328162 242.0118719 -184.56710052 245.76676559 C-185.94248332 247.14314283 -187.32476029 248.51266958 -188.71425056 249.87480354 C-190.60773565 251.73307028 -192.47502086 253.61423261 -194.33769226 255.50331116 C-194.89564647 256.03932687 -195.45360068 256.57534259 -196.02846259 257.12760121 C-197.75937656 258.83041344 -197.75937656 258.83041344 -199.6328125 261.77392578 C-199.49887355 266.95321229 -197.86627071 271.37615368 -196.0703125 276.21142578 C-195.38775391 278.06574219 -195.38775391 278.06574219 -194.69140625 279.95751953 C-194.34207031 280.88693359 -193.99273437 281.81634766 -193.6328125 282.77392578 C-188.99387969 278.89496385 -184.58772617 274.87209587 -180.32423401 270.58560181 C-179.7302215 269.99244372 -179.13620898 269.39928563 -178.52419609 268.78815305 C-176.55354746 266.81913888 -174.58647152 264.84659551 -172.61938477 262.87402344 C-171.19986601 261.45422234 -169.78012649 260.03464193 -168.36018372 258.61526489 C-164.51963572 254.77500306 -160.68217235 250.93167231 -156.84526563 247.08777285 C-152.82986712 243.06611056 -148.8116245 239.04729199 -144.79368591 235.02816772 C-137.19164467 227.42302208 -129.59215553 219.81533156 -121.99358553 212.20671785 C-113.34018594 203.54212945 -104.68393664 194.8803904 -96.02744973 186.21888661 C-78.22607016 168.40706283 -60.42826277 150.59167327 -42.6328125 132.77392578 C-44.40284197 128.96917066 -46.64634175 126.49303333 -49.6328125 123.52392578 C-50.5196875 122.63189453 -51.4065625 121.73986328 -52.3203125 120.82080078 C-56.24825874 117.34403756 -57.27047809 119.17586108 -60.63839263 122.48404652 Z M-259.6328125 262.77392578 C-261.62462243 272.55098264 -263.6016214 282.33094767 -265.3828125 292.14892578 C-265.57387573 293.17167603 -265.57387573 293.17167603 -265.76879883 294.21508789 C-266.46302968 298.1153323 -266.75538752 301.81475276 -266.6328125 305.77392578 C-257.86065396 305.16297503 -249.28715605 303.80219028 -240.6328125 302.27392578 C-239.31125794 302.04571334 -237.9896436 301.81784682 -236.66796875 301.59033203 C-230.07095262 300.50698597 -230.07095262 300.50698597 -223.6328125 298.77392578 C-226.1019369 283.06485484 -226.1019369 283.06485484 -233.72265625 269.89892578 C-236.3497152 268.84985066 -238.85640871 268.31980726 -241.6328125 267.77392578 C-244.29966674 266.91721973 -246.93063327 265.96056566 -249.5703125 265.02392578 C-254.48053714 263.312046 -254.48053714 263.312046 -259.6328125 262.77392578 Z " fill="#000000" transform="translate(447.6328125,25.22607421875)"/>
<path d="M0 0 C2.04097873 -0.00570836 4.08195426 -0.01267441 6.1229248 -0.02079773 C11.64326694 -0.03868651 17.16344977 -0.03756956 22.68381214 -0.03185534 C27.29652919 -0.02875927 31.90921583 -0.03486016 36.52192855 -0.04089409 C47.40071264 -0.05492178 58.27941815 -0.05339083 69.15820312 -0.04199219 C80.37938986 -0.03049463 91.60033806 -0.04461822 102.82149339 -0.07138866 C112.46418892 -0.09353149 122.10680949 -0.10018676 131.74952865 -0.09431225 C137.50532104 -0.09094028 143.26096027 -0.09337464 149.01673126 -0.11056328 C154.42427657 -0.12600913 159.83146723 -0.12210297 165.23899841 -0.10325813 C167.22315655 -0.09956666 169.20734085 -0.10269691 171.19147491 -0.11314392 C173.89989079 -0.12631634 176.60712581 -0.11484009 179.31549072 -0.09715271 C180.10050972 -0.10675772 180.88552872 -0.11636272 181.69433618 -0.12625879 C186.91054182 -0.05616217 189.83711146 1.12881342 193.86621094 4.40405273 C197.49454757 8.22335445 198.17621552 11.2868428 198.36621094 16.40405273 C198.17621552 21.52126267 197.49454757 24.58475101 193.86621094 28.40405273 C189.18615098 32.17510201 185.54644326 32.9797744 179.68840027 32.90284729 C178.88108044 32.90823184 178.07376062 32.9136164 177.24197656 32.91916412 C174.5450392 32.93240611 171.84901675 32.91730525 169.15209961 32.90234375 C167.2150989 32.90616793 165.27810103 32.91178782 163.34111023 32.91906738 C159.17336606 32.93101446 155.00587384 32.93053116 150.83812523 32.9204731 C144.24431172 32.90490604 137.6507567 32.91859543 131.05696106 32.93650818 C118.24613091 32.96732938 105.43537972 32.96882966 92.62451935 32.96685791 C76.32881447 32.96546521 60.03317056 32.97584635 43.7375105 33.01543564 C37.18677437 33.03035185 30.63626734 33.03011173 24.08552778 33.01795781 C20.00428659 33.01323832 15.92313259 33.02078011 11.84190559 33.03150177 C9.9541505 33.03390268 8.06638066 33.03119112 6.17864227 33.02289391 C3.59385679 33.01221556 1.00973729 33.02006744 -1.57502747 33.03224182 C-2.68517667 33.02087774 -2.68517667 33.02087774 -3.81775314 33.00928408 C-10.25366653 33.07319 -16.73600591 34.19071444 -21.57128906 38.65405273 C-25.71553507 45.94792572 -25.41990146 53.13878516 -25.39448547 61.33370972 C-25.39831102 62.64007735 -25.40213657 63.94644499 -25.40607804 65.29239953 C-25.41634795 68.90774253 -25.4141788 72.52298626 -25.40989745 76.13833737 C-25.40742839 80.04163761 -25.41644663 83.94491406 -25.42393494 87.84820557 C-25.43667901 95.49109449 -25.43847599 103.13394828 -25.43613467 110.77684604 C-25.43435101 116.98989764 -25.4361022 123.20293859 -25.44035912 129.41598892 C-25.4409543 130.30055758 -25.44154949 131.18512624 -25.44216272 132.09650002 C-25.44337448 133.8935577 -25.44458862 135.69061538 -25.4458051 137.48767306 C-25.45667954 154.33756661 -25.45451861 171.18744014 -25.44842025 188.03733481 C-25.44325133 203.44703402 -25.45450606 218.85667 -25.47351847 234.26635669 C-25.4928975 250.09471144 -25.50115274 265.92303628 -25.49739522 281.75140297 C-25.49548325 290.63553773 -25.49797028 299.51961867 -25.51210976 308.40374374 C-25.52402535 315.96701304 -25.52542645 323.53019541 -25.51331959 331.09346591 C-25.50743212 334.9507936 -25.50632775 338.8079623 -25.51832199 342.66527939 C-25.53118425 346.85045499 -25.52071323 351.03525244 -25.50801086 355.22042847 C-25.51907229 357.04159803 -25.51907229 357.04159803 -25.53035718 358.8995589 C-25.48181612 366.49936796 -25.25976455 374.01757929 -19.88378906 379.84155273 C-12.58991608 383.98579875 -5.39905664 383.69016513 2.79586792 383.66474915 C4.10223556 383.66857469 5.40860319 383.67240024 6.75455773 383.67634171 C10.36990074 383.68661162 13.98514446 383.68444248 17.60049558 383.68016112 C21.50379582 383.67769206 25.40707227 383.6867103 29.31036377 383.69419861 C36.95325269 383.70694268 44.59610648 383.70873966 52.23900424 383.70639835 C58.45205585 383.70461468 64.66509679 383.70636587 70.87814713 383.71062279 C71.76271579 383.71121798 72.64728445 383.71181317 73.55865822 383.71242639 C75.3557159 383.71363815 77.15277358 383.71485229 78.94983126 383.71606877 C95.79972481 383.72694321 112.64959834 383.72478228 129.49949302 383.71868392 C144.90919222 383.713515 160.3188282 383.72476973 175.72851489 383.74378214 C191.55686964 383.76316117 207.38519449 383.77141642 223.21356118 383.76765889 C232.09769593 383.76574692 240.98177688 383.76823395 249.86590195 383.78237343 C257.42917124 383.79428902 264.99235362 383.79569012 272.55562411 383.78358326 C276.4129518 383.77769579 280.27012051 383.77659142 284.12743759 383.78858566 C288.31261319 383.80144792 292.49741065 383.7909769 296.68258667 383.77827454 C298.50375624 383.78933596 298.50375624 383.78933596 300.3617171 383.80062085 C307.96152616 383.75207979 315.4797375 383.53002822 321.30371094 378.15405273 C324.58751206 372.37456277 325.15859449 366.61649107 325.11776733 360.08580017 C325.12073747 359.27550922 325.12370761 358.46521828 325.12676775 357.63037306 C325.1343737 354.92977849 325.12792784 352.22940361 325.12158203 349.52880859 C325.12433346 347.58679558 325.12801428 345.6447837 325.1325531 343.70277405 C325.14065211 339.52801428 325.14283686 335.35330803 325.14060593 331.17854118 C325.13776978 324.57711801 325.15213519 317.97580158 325.16958618 311.37440491 C325.21658721 292.60525097 325.24056078 273.83610472 325.24707031 255.06689453 C325.25081917 244.69534414 325.26883176 234.32391493 325.30216467 223.95241648 C325.32239261 217.38995108 325.32474246 210.82779789 325.3138845 204.26531398 C325.31127929 200.18417649 325.32527161 196.10322125 325.34396553 192.02213097 C325.34929212 190.12989719 325.34778277 188.23762995 325.33893013 186.34540939 C325.32781678 183.76161027 325.34123062 181.17904536 325.36068726 178.59532166 C325.3515626 177.84716578 325.34243794 177.0990099 325.33303678 176.32818264 C325.40791242 171.21628429 326.67958834 168.35833135 329.86621094 164.40405273 C333.68551266 160.7757161 336.749001 160.09404815 341.86621094 159.90405273 C346.98342088 160.09404815 350.04690922 160.7757161 353.86621094 164.40405273 C357.74180517 169.17416876 358.44218708 172.96554676 358.37414551 178.9413147 C358.38350545 180.21037267 358.38350545 180.21037267 358.39305449 181.50506818 C358.40897804 184.3331728 358.39638251 187.16041474 358.38378906 189.98852539 C358.3892107 192.01918032 358.3963336 194.04983131 358.4050293 196.08047485 C358.4232674 201.59324422 358.41619114 207.10571417 358.40351295 212.61848879 C358.3933796 218.39446089 358.40278034 224.1704075 358.40905762 229.94638062 C358.41633653 239.65253289 358.40674353 249.35856347 358.38769531 259.06469727 C358.36596296 270.26751357 358.3729506 281.47003825 358.39500093 292.67284739 C358.4131919 302.30197625 358.41569408 311.93101763 358.40524626 321.56015813 C358.39902691 327.30613119 358.398132 333.05196754 358.41139221 338.79793167 C358.42300253 344.20709897 358.41483051 349.61589331 358.39181519 355.0250206 C358.38655412 357.00342441 358.38799692 358.98185993 358.39686584 360.96025085 C358.4676553 378.36493574 355.75446531 391.00371135 343.55371094 404.15405273 C332.58333988 414.53672534 320.48498348 416.86021152 305.83670044 416.79173279 C304.43418575 416.7959122 303.03167445 416.80139304 301.62916934 416.8080526 C297.79832692 416.82244638 293.96770074 416.81828162 290.13684678 416.81088579 C285.99631142 416.8061413 281.85582199 416.81867527 277.71530151 416.8289032 C269.61259329 416.8460716 261.50996269 416.84693527 253.407241 416.84169029 C246.81909216 416.83764365 240.2309662 416.83909803 233.64281845 416.84443855 C232.23461358 416.84556119 232.23461358 416.84556119 230.79796012 416.8467065 C228.89058423 416.84823803 226.98320835 416.84977637 225.07583247 416.85132147 C207.20145995 416.86503947 189.32713124 416.85961378 171.45275973 416.84813625 C155.1140798 416.83820501 138.77551314 416.85114391 122.43685068 416.87507045 C105.6444801 416.89947539 88.85216224 416.90906586 72.05977428 416.90241772 C62.63846027 416.89892855 53.21723334 416.90113758 43.79593277 416.91866875 C35.77569358 416.93340818 27.75560281 416.93400345 19.73536648 416.91659784 C15.64672941 416.90809971 11.55835727 416.90590902 7.46973419 416.92124939 C3.72037549 416.93514222 -0.02849246 416.93027508 -3.77782311 416.91101015 C-5.76274812 416.9055012 -7.74769842 416.91948326 -9.7325753 416.93436426 C-24.36399402 416.81490717 -35.21956719 411.98571045 -45.88378906 402.09155273 C-56.26646167 391.12118168 -58.58994785 379.02282528 -58.52146912 364.37454224 C-58.52564853 362.97202755 -58.53112937 361.56951625 -58.53778893 360.16701114 C-58.55218271 356.33616871 -58.54801795 352.50554254 -58.54062212 348.67468858 C-58.53587763 344.53415322 -58.5484116 340.39366379 -58.55863953 336.25314331 C-58.57580793 328.15043509 -58.57667159 320.04780448 -58.57142662 311.9450828 C-58.56737997 305.35693396 -58.56883436 298.768808 -58.57417488 292.18066025 C-58.5749233 291.241857 -58.57567173 290.30305375 -58.57644283 289.33580192 C-58.57797435 287.42842603 -58.5795127 285.52105015 -58.58105779 283.61367427 C-58.5947758 265.73930175 -58.58935011 247.86497304 -58.57787258 229.99060152 C-58.56794134 213.6519216 -58.58088024 197.31335494 -58.60480677 180.97469248 C-58.62921171 164.1823219 -58.63880219 147.39000403 -58.63215405 130.59761608 C-58.62866488 121.17630206 -58.63087391 111.75507514 -58.64840508 102.33377457 C-58.66314451 94.31353538 -58.66373977 86.29344461 -58.64633416 78.27320828 C-58.63783604 74.18457121 -58.63564535 70.09619907 -58.65098572 66.00757599 C-58.66487855 62.25821729 -58.66001141 58.50934933 -58.64074648 54.76001869 C-58.63523753 52.77509367 -58.64921958 50.79014338 -58.66410059 48.8052665 C-58.54464349 34.17384778 -53.71544677 23.31827461 -43.82128906 12.65405273 C-30.92501356 0.44864913 -16.76263962 -0.04233993 0 0 Z " fill="#000000" transform="translate(74.1337890625,79.595947265625)"/>
</svg>
